<?xml version="1.0"?>
<svg width="250" height="40" xmlns="http://www.w3.org/2000/svg" xmlns:svg="http://www.w3.org/2000/svg" version="1.1">
 <g class="layer">
  <title>Layer 1</title>
  <path d="m18.74,19.47l14.75,-0.01a0.52,0.51 -0.5 0 0 0.52,-0.52l-0.16,-8.95q0,-0.43 -0.23,-0.78l-1.78,-2.69a1.96,1.96 0 0 1 1.58,-3.04q4.01,-0.11 7.77,-0.01c1.53,0.05 3.21,0.62 3.02,2.39c-0.21,1.93 -2.38,2.5 -2.38,4.87q0,11.36 -0.02,22.71q-0.01,1.27 1.86,2.47q0.44,0.28 0.53,0.8q0.38,2.23 -1.96,2.52q-6.36,0.79 -9.22,-0.02q-1.95,-0.55 -1.63,-2.11c0.38,-1.85 2.54,-2.1 2.51,-4.56q-0.03,-3.59 0.03,-6.88a0.95,0.95 0 0 0 -0.96,-0.96l-14.09,0.02q-0.61,0 -0.61,0.61l-0.01,8.06a1.68,1.67 16.6 0 0 0.78,1.43q1.23,0.76 1.53,2.25a1.79,1.78 80.1 0 1 -1.49,2.13q-4.84,0.69 -9.72,-0.02a1.8,1.8 0 0 1 -0.91,-3.14l1.64,-1.4a1.47,1.46 -20.5 0 0 0.51,-1.11q0.04,-11.66 0,-22.58c-0.01,-1.96 -0.71,-2.84 -2.19,-3.88q-0.38,-0.27 -0.41,-0.73c-0.22,-4.2 7.96,-2.95 10.53,-2.85a1.96,1.92 -25.6 0 1 1.08,0.37q2.05,1.46 0.38,3.33c-2.65,2.98 -1.79,8.13 -1.7,11.84q0.01,0.44 0.45,0.44z" data-c-fill="a04732" fill="#000000" id="svg_3"/>
  <path d="m101.9,30.23l7.13,-23.93a4.06,4.06 0 0 1 3.74,-2.9c1.93,-0.07 10.06,-1.08 9.8,2.46c-0.09,1.24 -1.23,1.99 -2.06,2.9q-0.34,0.37 -0.37,0.87c-0.23,3.6 0.94,7.59 1.24,10.29q0.77,6.95 1.94,13.85q0.08,0.48 0.44,0.82c1.1,1.05 2.75,2.32 1.36,3.95q-0.57,0.67 -1.93,0.79c-2.16,0.2 -11.59,1.43 -9.71,-3.32q0.18,-0.45 0.59,-0.72q1.54,-1 1.31,-2.42q-1.48,-9.07 -2.21,-17.46q-0.19,-2.09 -0.86,-0.11q-2.82,8.36 -5.57,17.45c-0.75,2.5 -0.98,5.53 -3.91,6.43c-3.62,1.11 -5.01,-1.67 -5.96,-4.73q-2.76,-8.81 -5.52,-17.63c-0.2,-0.65 -0.02,-1.35 -0.22,-2.03q-0.17,-0.58 -0.61,-0.17q-0.34,0.32 -0.4,0.99q-0.45,4.61 -1.6,11.18c-0.36,2.04 -0.2,4.22 -0.57,6.38q-0.08,0.49 0.17,0.93c0.56,0.97 1.73,1.92 1.85,2.91c0.17,1.43 -1.02,2.18 -2.36,2.3q-4.27,0.4 -8.31,-0.09a2.15,2.11 -22.1 0 1 -1.07,-0.44q-1.59,-1.2 -0.32,-2.52c1.19,-1.24 2.16,-2.48 2.36,-4.28q1.11,-9.85 2.74,-19.62q0.51,-3.03 -1.71,-4.91q-0.4,-0.33 -0.57,-0.81c-1.71,-4.53 7.92,-3.34 9.86,-3.19a3.84,3.83 -6.4 0 1 3.39,2.7q3.68,11.93 7.22,23.66q0.11,0.35 0.29,0.46q0.12,0.07 0.25,0.08q0.12,0 0.16,-0.12z" data-c-fill="a04732" fill="#000000" id="svg_4"/>
  <path d="m167.22,29.06l-0.01,4.47a1.45,1.43 21.3 0 0 0.49,1.1c1.14,1.01 3.38,3.01 1.16,4.42q-0.59,0.37 -1.79,0.42q-6.31,0.31 -8.46,-0.01q-2.42,-0.36 -1.18,-2.97q0.19,-0.4 0.57,-0.64q1.5,-0.94 1.5,-2.04q0.01,-12.04 0.02,-24.05a1.28,1.28 0 0 0 -0.35,-0.88c-0.79,-0.85 -1.93,-1.7 -2.03,-2.85c-0.16,-1.67 1.36,-2.41 2.89,-2.43q6.75,-0.09 13.53,-0.03c1.98,0.02 3.6,0.55 5.55,0.97c11.18,2.41 12.54,17.96 2.48,21.98c-3.65,1.47 -9.29,1.61 -13.75,1.88q-0.62,0.03 -0.62,0.66zm-0.05,-18.34l0.04,10.56a2.26,2.26 0 0 0 2.27,2.25l3.49,-0.01a6.59,6.57 -0.2 0 0 6.56,-6.59l0,-1.94a6.59,6.57 -0.2 0 0 -6.62,-6.55l-3.49,0.01a2.26,2.26 0 0 0 -2.25,2.27z" data-c-fill="a04732" fill="#000000" id="svg_5"/>
  <path d="m202.21,9.93l-0.03,23.94q0,0.55 0.46,0.86q1.16,0.8 2,2.08a1.81,1.81 0 0 1 -1.51,2.8l-9.53,0.01a1.94,1.94 0 0 1 -1.31,-3.38l1.74,-1.57a1.08,1.06 -22 0 0 0.34,-0.78q0,-10.71 0.03,-21.39c0,-2.21 -0.24,-3.72 -1.94,-5.03a1.86,1.85 35.2 0 1 -0.43,-2.47c1.35,-2.13 7.68,-1.44 9.97,-1.45q0.97,0 1.79,0.5c2.19,1.35 0.12,4.09 -1.23,5.17q-0.34,0.27 -0.35,0.71z" data-c-fill="a04732" fill="#000000" id="svg_6"/>
  <path d="m220.46,9.2c-3.59,-0.15 -5.64,-0.31 -8.93,1.35c-4.79,2.42 -7.3,-7.02 1.48,-7.04q11.88,-0.02 23.76,0c3.2,0.01 6.33,0.69 5.85,4.56c-0.68,5.45 -4.54,1.77 -6.88,1.29q-3.05,-0.62 -6.18,-0.16q-0.47,0.07 -0.47,0.54l0.03,24.28q0,0.51 0.4,0.83c0.77,0.6 1.68,1.19 1.82,2.19c0.23,1.63 -0.87,2.28 -2.37,2.42q-4.53,0.4 -9.25,-0.18a1.66,1.66 0 0 1 -1.12,-2.65q0.88,-1.15 1.91,-1.81a1.12,1.11 -16.4 0 0 0.52,-0.94l0.01,-24.09q0,-0.57 -0.58,-0.59z" data-c-fill="a04732" fill="#000000" id="svg_7"/>
  <path d="m75.32,27.32a12.2,12.2 0 0 1 -12.11,12.28l-2.62,0.02a12.2,12.2 0 0 1 -12.29,-12.12l-0.02,-2.86a12.2,12.2 0 0 1 12.11,-12.28l2.62,-0.02a12.2,12.2 0 0 1 12.29,12.12l0.02,2.86zm-8.2,4.41c0.6,-4.18 0.44,-14.4 -4.74,-15.74c-9.02,-2.33 -6.61,15.41 -3.15,18.89c2.95,2.98 7.34,0.76 7.89,-3.15z" data-c-fill="a04732" fill="#000000" id="svg_8"/>
  <path d="m137.73,30.4a0.36,0.35 66.9 0 0 -0.18,0.45q1.01,2.47 3.76,3.12q5.11,1.19 8.61,-2.6q1.18,-1.27 2.67,-1.64a0.63,0.63 0 0 1 0.77,0.74c-2.52,11.92 -19.55,11.87 -24.13,1.72c-3.95,-8.76 0.39,-18.43 10.26,-20.04c4.17,-0.67 10.13,0.89 12.29,5.2c2.12,4.24 0.04,6.27 -3.71,8.12q-5.06,2.49 -10.34,4.93zm-1.75,-4.1c1.97,-0.83 7.46,-2.74 9.06,-4.51a1.78,1.77 52.2 0 0 0.25,-2.02c-1.05,-1.99 -2.78,-3.76 -5.24,-3.63c-5.82,0.3 -5.36,5.34 -4.74,9.78a0.49,0.48 74.3 0 0 0.67,0.38z" data-c-fill="a04732" fill="#000000" id="svg_9"/>
 </g>
</svg>